<mxfile host="app.diagrams.net" agent="Mozilla/5.0 (Macintosh; Intel Mac OS X 10_15_7) AppleWebKit/605.1.15 (KHTML, like Gecko) Version/18.5 Safari/605.1.15" version="28.2.1">
  <diagram name="Page-1" id="5Wd0EeElhCvHtOv3X3lm">
    <mxGraphModel dx="1289" dy="740" grid="1" gridSize="10" guides="1" tooltips="1" connect="1" arrows="1" fold="1" page="0" pageScale="1" pageWidth="850" pageHeight="1100" math="0" shadow="0">
      <root>
        <mxCell id="0" />
        <mxCell id="1" parent="0" />
        <mxCell id="IaMV2PV-vSsLoISrMVWB-3" value="" style="edgeStyle=orthogonalEdgeStyle;rounded=0;orthogonalLoop=1;jettySize=auto;html=1;" edge="1" parent="1" source="IaMV2PV-vSsLoISrMVWB-1" target="IaMV2PV-vSsLoISrMVWB-2">
          <mxGeometry relative="1" as="geometry" />
        </mxCell>
        <mxCell id="IaMV2PV-vSsLoISrMVWB-1" value="Start" style="strokeWidth=2;html=1;shape=mxgraph.flowchart.start_1;whiteSpace=wrap;" vertex="1" parent="1">
          <mxGeometry x="390" y="90" width="100" height="60" as="geometry" />
        </mxCell>
        <mxCell id="IaMV2PV-vSsLoISrMVWB-7" value="" style="edgeStyle=orthogonalEdgeStyle;rounded=0;orthogonalLoop=1;jettySize=auto;html=1;" edge="1" parent="1" source="IaMV2PV-vSsLoISrMVWB-2" target="IaMV2PV-vSsLoISrMVWB-6">
          <mxGeometry relative="1" as="geometry" />
        </mxCell>
        <mxCell id="IaMV2PV-vSsLoISrMVWB-2" value="get midi sequence from midi file using MidiSystem.getSequence" style="whiteSpace=wrap;html=1;strokeWidth=2;" vertex="1" parent="1">
          <mxGeometry x="365" y="230" width="150" height="80" as="geometry" />
        </mxCell>
        <mxCell id="IaMV2PV-vSsLoISrMVWB-9" value="" style="edgeStyle=orthogonalEdgeStyle;rounded=0;orthogonalLoop=1;jettySize=auto;html=1;" edge="1" parent="1" source="IaMV2PV-vSsLoISrMVWB-6" target="IaMV2PV-vSsLoISrMVWB-8">
          <mxGeometry relative="1" as="geometry" />
        </mxCell>
        <mxCell id="IaMV2PV-vSsLoISrMVWB-6" value="&lt;div&gt;initialize Score object trackIndex = 0&lt;br&gt;&lt;/div&gt;" style="whiteSpace=wrap;html=1;strokeWidth=2;" vertex="1" parent="1">
          <mxGeometry x="380" y="400" width="120" height="60" as="geometry" />
        </mxCell>
        <mxCell id="IaMV2PV-vSsLoISrMVWB-11" value="Yes" style="edgeStyle=orthogonalEdgeStyle;rounded=0;orthogonalLoop=1;jettySize=auto;html=1;" edge="1" parent="1" source="IaMV2PV-vSsLoISrMVWB-8" target="IaMV2PV-vSsLoISrMVWB-10">
          <mxGeometry relative="1" as="geometry" />
        </mxCell>
        <mxCell id="IaMV2PV-vSsLoISrMVWB-13" value="No" style="edgeStyle=orthogonalEdgeStyle;rounded=0;orthogonalLoop=1;jettySize=auto;html=1;" edge="1" parent="1" source="IaMV2PV-vSsLoISrMVWB-8" target="IaMV2PV-vSsLoISrMVWB-12">
          <mxGeometry relative="1" as="geometry" />
        </mxCell>
        <mxCell id="IaMV2PV-vSsLoISrMVWB-8" value="trackIndex &amp;lt;&amp;nbsp;&lt;div&gt;sequence.tracks&lt;div&gt;.size?&lt;/div&gt;&lt;/div&gt;" style="rhombus;whiteSpace=wrap;html=1;strokeWidth=2;" vertex="1" parent="1">
          <mxGeometry x="355" y="520" width="170" height="80" as="geometry" />
        </mxCell>
        <mxCell id="IaMV2PV-vSsLoISrMVWB-15" value="" style="edgeStyle=orthogonalEdgeStyle;rounded=0;orthogonalLoop=1;jettySize=auto;html=1;" edge="1" parent="1" source="IaMV2PV-vSsLoISrMVWB-10" target="IaMV2PV-vSsLoISrMVWB-14">
          <mxGeometry relative="1" as="geometry" />
        </mxCell>
        <mxCell id="IaMV2PV-vSsLoISrMVWB-10" value="Initialize staves: HashMap&amp;lt;int (channel), Staff&amp;gt;&lt;div&gt;&lt;div&gt;&lt;div&gt;currentTrack = sequence.tracks[trackIndex]&lt;br&gt;&lt;div&gt;eventIndex = 0&lt;/div&gt;&lt;/div&gt;&lt;div&gt;initialize activeNotes: HashMap&amp;lt;Pair&amp;lt;int (channel), int (pitch)&amp;gt;, Queue&amp;lt;ActiveNote&amp;gt;&amp;gt;&lt;/div&gt;&lt;/div&gt;&lt;/div&gt;" style="whiteSpace=wrap;html=1;strokeWidth=2;" vertex="1" parent="1">
          <mxGeometry x="600" y="510" width="400" height="100" as="geometry" />
        </mxCell>
        <mxCell id="IaMV2PV-vSsLoISrMVWB-12" value="return Score object" style="whiteSpace=wrap;html=1;strokeWidth=2;" vertex="1" parent="1">
          <mxGeometry x="380" y="700" width="120" height="60" as="geometry" />
        </mxCell>
        <mxCell id="IaMV2PV-vSsLoISrMVWB-19" value="No" style="edgeStyle=orthogonalEdgeStyle;rounded=0;orthogonalLoop=1;jettySize=auto;html=1;" edge="1" parent="1" source="IaMV2PV-vSsLoISrMVWB-14" target="IaMV2PV-vSsLoISrMVWB-18">
          <mxGeometry relative="1" as="geometry" />
        </mxCell>
        <mxCell id="IaMV2PV-vSsLoISrMVWB-21" value="Yes" style="edgeStyle=orthogonalEdgeStyle;rounded=0;orthogonalLoop=1;jettySize=auto;html=1;" edge="1" parent="1" source="IaMV2PV-vSsLoISrMVWB-14" target="IaMV2PV-vSsLoISrMVWB-20">
          <mxGeometry relative="1" as="geometry" />
        </mxCell>
        <mxCell id="IaMV2PV-vSsLoISrMVWB-14" value="eventIndex &amp;lt; currentTrack.size?" style="rhombus;whiteSpace=wrap;html=1;strokeWidth=2;" vertex="1" parent="1">
          <mxGeometry x="632.5" y="640" width="165" height="80" as="geometry" />
        </mxCell>
        <mxCell id="IaMV2PV-vSsLoISrMVWB-22" style="edgeStyle=orthogonalEdgeStyle;rounded=0;orthogonalLoop=1;jettySize=auto;html=1;" edge="1" parent="1" source="IaMV2PV-vSsLoISrMVWB-18">
          <mxGeometry relative="1" as="geometry">
            <mxPoint x="440" y="500" as="targetPoint" />
            <Array as="points">
              <mxPoint x="260" y="840" />
              <mxPoint x="260" y="500" />
              <mxPoint x="440" y="500" />
            </Array>
          </mxGeometry>
        </mxCell>
        <mxCell id="IaMV2PV-vSsLoISrMVWB-18" value="append Staff object to score.staves" style="whiteSpace=wrap;html=1;strokeWidth=2;" vertex="1" parent="1">
          <mxGeometry x="655" y="810" width="120" height="60" as="geometry" />
        </mxCell>
        <mxCell id="IaMV2PV-vSsLoISrMVWB-31" value="ShortMessage" style="edgeStyle=orthogonalEdgeStyle;rounded=0;orthogonalLoop=1;jettySize=auto;html=1;" edge="1" parent="1" source="IaMV2PV-vSsLoISrMVWB-20" target="IaMV2PV-vSsLoISrMVWB-30">
          <mxGeometry relative="1" as="geometry" />
        </mxCell>
        <mxCell id="IaMV2PV-vSsLoISrMVWB-33" value="MetaMessage" style="edgeStyle=orthogonalEdgeStyle;rounded=0;orthogonalLoop=1;jettySize=auto;html=1;" edge="1" parent="1" source="IaMV2PV-vSsLoISrMVWB-20" target="IaMV2PV-vSsLoISrMVWB-32">
          <mxGeometry relative="1" as="geometry" />
        </mxCell>
        <mxCell id="IaMV2PV-vSsLoISrMVWB-20" value="&lt;div&gt;event.message.type?&lt;/div&gt;" style="rhombus;whiteSpace=wrap;html=1;strokeWidth=2;" vertex="1" parent="1">
          <mxGeometry x="877.5" y="640" width="165" height="80" as="geometry" />
        </mxCell>
        <mxCell id="IaMV2PV-vSsLoISrMVWB-35" value="Note on" style="edgeStyle=orthogonalEdgeStyle;rounded=0;orthogonalLoop=1;jettySize=auto;html=1;" edge="1" parent="1" source="IaMV2PV-vSsLoISrMVWB-30" target="IaMV2PV-vSsLoISrMVWB-34">
          <mxGeometry relative="1" as="geometry" />
        </mxCell>
        <mxCell id="IaMV2PV-vSsLoISrMVWB-39" value="Note off" style="edgeStyle=orthogonalEdgeStyle;rounded=0;orthogonalLoop=1;jettySize=auto;html=1;" edge="1" parent="1" source="IaMV2PV-vSsLoISrMVWB-30" target="IaMV2PV-vSsLoISrMVWB-38">
          <mxGeometry relative="1" as="geometry" />
        </mxCell>
        <mxCell id="IaMV2PV-vSsLoISrMVWB-30" value="&lt;div&gt;message.command?&lt;/div&gt;" style="rhombus;whiteSpace=wrap;html=1;strokeWidth=2;" vertex="1" parent="1">
          <mxGeometry x="1150" y="640" width="165" height="80" as="geometry" />
        </mxCell>
        <mxCell id="IaMV2PV-vSsLoISrMVWB-32" value="&lt;div&gt;metaMessageType?&lt;/div&gt;" style="rhombus;whiteSpace=wrap;html=1;strokeWidth=2;" vertex="1" parent="1">
          <mxGeometry x="877.5" y="810" width="165" height="80" as="geometry" />
        </mxCell>
        <mxCell id="IaMV2PV-vSsLoISrMVWB-37" value="Yes" style="edgeStyle=orthogonalEdgeStyle;rounded=0;orthogonalLoop=1;jettySize=auto;html=1;" edge="1" parent="1" source="IaMV2PV-vSsLoISrMVWB-34" target="IaMV2PV-vSsLoISrMVWB-36">
          <mxGeometry relative="1" as="geometry" />
        </mxCell>
        <mxCell id="IaMV2PV-vSsLoISrMVWB-34" value="&lt;div&gt;velocity &amp;gt; 0?&lt;/div&gt;" style="rhombus;whiteSpace=wrap;html=1;strokeWidth=2;" vertex="1" parent="1">
          <mxGeometry x="1395" y="640" width="165" height="80" as="geometry" />
        </mxCell>
        <mxCell id="IaMV2PV-vSsLoISrMVWB-36" value="activeNotes[Pair(channel, pitch)]&lt;div&gt;.enqueue(ActiveNote(pitch, velocity, startTick))&lt;/div&gt;" style="whiteSpace=wrap;html=1;strokeWidth=2;" vertex="1" parent="1">
          <mxGeometry x="1650" y="645" width="250" height="70" as="geometry" />
        </mxCell>
        <mxCell id="IaMV2PV-vSsLoISrMVWB-38" value="activeNotes[Pair(channel, pitch)].dequeue()&lt;div&gt;&lt;br&gt;&lt;/div&gt;" style="whiteSpace=wrap;html=1;strokeWidth=2;" vertex="1" parent="1">
          <mxGeometry x="1100" y="810" width="260" height="60" as="geometry" />
        </mxCell>
        <mxCell id="IaMV2PV-vSsLoISrMVWB-40" value="No" style="edgeStyle=orthogonalEdgeStyle;rounded=0;orthogonalLoop=1;jettySize=auto;html=1;" edge="1" parent="1" source="IaMV2PV-vSsLoISrMVWB-34" target="IaMV2PV-vSsLoISrMVWB-38">
          <mxGeometry relative="1" as="geometry">
            <Array as="points">
              <mxPoint x="1478" y="840" />
            </Array>
          </mxGeometry>
        </mxCell>
        <mxCell id="IaMV2PV-vSsLoISrMVWB-41" value="ActiveNote" style="swimlane;fontStyle=1;align=center;verticalAlign=top;childLayout=stackLayout;horizontal=1;startSize=26;horizontalStack=0;resizeParent=1;resizeParentMax=0;resizeLast=0;collapsible=1;marginBottom=0;whiteSpace=wrap;html=1;" vertex="1" parent="1">
          <mxGeometry x="1060" y="460" width="305" height="138" as="geometry" />
        </mxCell>
        <mxCell id="IaMV2PV-vSsLoISrMVWB-42" value="pitch: int" style="text;strokeColor=none;fillColor=none;align=left;verticalAlign=top;spacingLeft=4;spacingRight=4;overflow=hidden;rotatable=0;points=[[0,0.5],[1,0.5]];portConstraint=eastwest;whiteSpace=wrap;html=1;" vertex="1" parent="IaMV2PV-vSsLoISrMVWB-41">
          <mxGeometry y="26" width="305" height="26" as="geometry" />
        </mxCell>
        <mxCell id="IaMV2PV-vSsLoISrMVWB-45" value="velocity: int" style="text;strokeColor=none;fillColor=none;align=left;verticalAlign=top;spacingLeft=4;spacingRight=4;overflow=hidden;rotatable=0;points=[[0,0.5],[1,0.5]];portConstraint=eastwest;whiteSpace=wrap;html=1;" vertex="1" parent="IaMV2PV-vSsLoISrMVWB-41">
          <mxGeometry y="52" width="305" height="26" as="geometry" />
        </mxCell>
        <mxCell id="IaMV2PV-vSsLoISrMVWB-46" value="eventStartTick: int" style="text;strokeColor=none;fillColor=none;align=left;verticalAlign=top;spacingLeft=4;spacingRight=4;overflow=hidden;rotatable=0;points=[[0,0.5],[1,0.5]];portConstraint=eastwest;whiteSpace=wrap;html=1;" vertex="1" parent="IaMV2PV-vSsLoISrMVWB-41">
          <mxGeometry y="78" width="305" height="26" as="geometry" />
        </mxCell>
        <mxCell id="IaMV2PV-vSsLoISrMVWB-43" value="" style="line;strokeWidth=1;fillColor=none;align=left;verticalAlign=middle;spacingTop=-1;spacingLeft=3;spacingRight=3;rotatable=0;labelPosition=right;points=[];portConstraint=eastwest;strokeColor=inherit;" vertex="1" parent="IaMV2PV-vSsLoISrMVWB-41">
          <mxGeometry y="104" width="305" height="8" as="geometry" />
        </mxCell>
        <mxCell id="IaMV2PV-vSsLoISrMVWB-44" value="+ &amp;lt;&amp;lt;create&amp;gt;&amp;gt; ActiveNote(pitch: int, velocity: int)" style="text;strokeColor=none;fillColor=none;align=left;verticalAlign=top;spacingLeft=4;spacingRight=4;overflow=hidden;rotatable=0;points=[[0,0.5],[1,0.5]];portConstraint=eastwest;whiteSpace=wrap;html=1;" vertex="1" parent="IaMV2PV-vSsLoISrMVWB-41">
          <mxGeometry y="112" width="305" height="26" as="geometry" />
        </mxCell>
      </root>
    </mxGraphModel>
  </diagram>
</mxfile>
